<?xml version="1.0" standalone="no"?>
<!DOCTYPE svg PUBLIC "-//W3C//DTD SVG 20010904//EN"
 "http://www.w3.org/TR/2001/REC-SVG-20010904/DTD/svg10.dtd">
<svg version="1.0" xmlns="http://www.w3.org/2000/svg"
 width="189.000000pt" height="109.000000pt" viewBox="0 0 189.000000 109.000000"
 preserveAspectRatio="xMidYMid meet">

<g transform="translate(0.000000,109.000000) scale(0.100000,-0.100000)"
fill="#000000" stroke="none">
<path d="M145 911 c40 -74 95 -133 168 -181 l62 -42 -56 6 c-31 3 -75 13 -99
21 -24 8 -46 13 -48 10 -11 -11 125 -131 183 -162 l60 -32 -36 -1 c-20 0 -57
6 -84 14 l-47 15 23 -25 c33 -35 114 -79 182 -99 31 -9 57 -21 57 -26 0 -11
-50 -11 -108 0 -33 7 -40 6 -32 -4 15 -18 116 -62 175 -76 84 -20 82 -19 65
-29 -8 -6 -35 -10 -60 -10 l-45 0 30 -20 c41 -27 148 -60 197 -60 34 0 39 3
33 18 -16 38 -34 132 -44 232 -12 127 -33 188 -85 247 -49 56 -89 76 -209 102
-107 23 -198 64 -266 120 l-45 36 29 -54z"/>
<path d="M1701 926 c-39 -42 -139 -87 -255 -116 -128 -31 -164 -48 -208 -93
-52 -54 -80 -128 -90 -241 -8 -89 -22 -165 -44 -245 -7 -24 -7 -24 54 -18 41
3 85 16 129 38 l68 33 -47 6 c-26 3 -50 9 -54 13 -8 7 -5 8 87 32 59 15 176
71 167 80 -2 2 -21 0 -43 -5 -53 -12 -122 -13 -110 -1 6 5 39 19 75 31 68 23
144 66 175 100 22 24 21 24 -37 4 -26 -8 -61 -14 -80 -12 -32 3 -32 3 32 37
62 33 180 138 180 160 0 5 -19 1 -43 -9 -24 -11 -70 -22 -103 -26 l-59 -6 40
27 c62 43 134 115 171 172 19 29 34 55 34 58 0 12 -18 3 -39 -19z"/>
<path d="M620 787 c0 -2 22 -26 49 -54 61 -63 80 -116 91 -263 11 -133 31
-208 71 -266 33 -48 84 -94 105 -94 27 0 94 72 124 134 26 52 32 82 45 209 17
173 34 219 103 291 l47 48 -51 -25 c-119 -60 -158 -119 -179 -274 -17 -114
-31 -147 -71 -165 -55 -25 -91 28 -110 162 -17 120 -30 152 -87 209 -34 35
-137 101 -137 88z"/>
</g>
</svg>
